<svg xmlns="http://www.w3.org/2000/svg" viewBox="0 0 64 64" role="img" aria-label="보리도등론 아이콘">
  <defs>
    <linearGradient id="bg" x1="10" y1="8" x2="56" y2="56" gradientUnits="userSpaceOnUse">
      <stop offset="0" stop-color="#2a2116" />
      <stop offset="1" stop-color="#120f0b" />
    </linearGradient>
    <linearGradient id="lamp" x1="10" y1="10" x2="54" y2="54" gradientUnits="userSpaceOnUse">
      <stop offset="0" stop-color="#f3d49a" />
      <stop offset="1" stop-color="#b98c43" />
    </linearGradient>
  </defs>
  <rect width="64" height="64" rx="14" fill="url(#bg)" />
  <g transform="translate(8, 8) scale(2.0)" stroke="url(#lamp)" stroke-width="2" stroke-linecap="round" stroke-linejoin="round" fill="none">
    <path d="M10.293 2.293a1 1 0 0 1 1.414 0l2.5 2.5 5.994 1.227a1 1 0 0 1 .506 1.687l-7 7a1 1 0 0 1-1.687-.506l-1.227-5.994-2.5-2.5a1 1 0 0 1 0-1.414z" />
    <path d="m14.207 4.793-3.414 3.414" />
    <path d="M3 20a2 2 0 0 1 2-2h4a2 2 0 0 1 2 2v1a1 1 0 0 1-1 1H4a1 1 0 0 1-1-1z" />
    <path d="m9.086 6.5-4.793 4.793a1 1 0 0 0-.18 1.17L7 18" />
  </g>
</svg>
